<svg height="512pt" viewBox="-35 0 511 512" width="512pt" xmlns="http://www.w3.org/2000/svg"><path d="m149.566406 225.398438v-13.09375c0-4.140626-3.355468-7.5-7.5-7.5-4.140625 0-7.5 3.359374-7.5 7.5v13.09375c0 4.144531 3.359375 7.5 7.5 7.5 4.144532 0 7.5-3.355469 7.5-7.5zm240.144532 55.042968c28.8125-1.679687 51.679687-23.171875 51.679687-49.367187 0-12.648438-5.328125-24.59375-14.804687-33.691407 5.003906-8.410156 7.933593-18.566406 7.933593-29.496093 0-18.976563-8.726562-36.0625-22.691406-45.328125.535156-1.972656.980469-3.957032 1.328125-5.941406 2.734375-15.5.132812-31.277344-7.519531-45.628907-1.949219-3.652343-6.492188-5.035156-10.148438-3.085937-3.65625 1.949218-5.039062 6.492187-3.089843 10.148437 6.0625 11.359375 8.132812 23.796875 5.984374 35.960938-.558593 3.171875-1.429687 6.355469-2.585937 9.460937-1.367187 3.671875.320313 7.78125 3.878906 9.425782 11.871094 5.488281 19.84375 19.550781 19.84375 34.988281 0 10.007812-3.238281 19.105469-8.496093 25.824219-.175782.191406-.347657.398437-.503907.613281-.023437.035156-.042969.070312-.066406.105469-4.59375 5.566406-10.625 9.363281-17.339844 10.496093-.007812 0-.015625 0-.019531.003907-1.371094.226562-2.765625.355468-4.183594.355468-16.585937 0-30.308594-16.484375-30.589844-36.75-.03125-2.246094-1.066406-4.355468-2.820312-5.757812-1.753906-1.398438-4.042969-1.941406-6.238281-1.476563-9.511719 2.023438-19.292969 2.171875-29.070313.449219-15.546875-2.742188-29.898437-10.203125-40.410156-21.011719-2.507812-2.578125-6.496094-3.011719-9.5-1.035156-14.273438 9.398437-31.332031 14.367187-49.335938 14.367187-18.003906 0-35.0625-4.96875-49.332031-14.367187-3.003906-1.976563-6.992187-1.542969-9.5 1.035156-10.511719 10.808594-24.863281 18.269531-40.410156 21.011719-9.777344 1.722656-19.5625 1.574219-29.070313-.449219-2.195312-.46875-4.484374.074219-6.238281 1.476563-1.753906 1.398437-2.789062 3.511718-2.820312 5.757812-.28125 20.265625-14.007813 36.75-30.59375 36.75-1.417969 0-2.808594-.128906-4.179688-.355468-.003906-.003907-.015625-.003907-.019531-.003907-6.71875-1.132812-12.746094-4.929687-17.339844-10.496093-.023437-.035157-.042968-.070313-.066406-.105469-.160156-.214844-.328125-.421875-.503906-.617188-5.257813-6.71875-8.496094-15.8125-8.496094-25.820312 0-15.441407 7.972656-29.5 19.84375-34.988281 3.554688-1.648438 5.246094-5.753907 3.878906-9.425782-1.160156-3.113281-2.027344-6.292968-2.585937-9.460937-2.785157-15.777344 1.523437-31.882813 12.128906-45.351563 10.800781-13.714844 26.789063-23.035156 45.019531-26.25 15.308594-2.699218 30.53125-.832031 44.039063 5.398438 3.148437 1.449218 6.878906.558594 9.027343-2.164063 15.152344-19.1875 40.28125-30.644531 67.21875-30.644531 26.941407 0 52.066407 11.457031 67.21875 30.648438 2.148438 2.71875 5.882813 3.613281 9.03125 2.164062 13.503907-6.234375 28.730469-8.101562 44.039063-5.402344 10.984375 1.9375 21.476563 6.238282 30.332031 12.4375 3.394532 2.375 8.070313 1.546875 10.445313-1.847656s1.546875-8.070312-1.847657-10.441406c-10.636718-7.445313-23.199218-12.605469-36.328124-14.917969-16.363282-2.886719-32.703126-1.390625-47.617188 4.3125-18.171875-20.101563-45.867188-31.953125-75.273438-31.953125-29.402343 0-57.101562 11.851562-75.273437 31.953125-14.910156-5.703125-31.253906-7.199219-47.617187-4.3125-21.867188 3.851563-41.113282 15.128906-54.199219 31.742187-13.285157 16.867188-18.652344 37.191407-15.121094 57.234376.351563 1.984374.792969 3.96875 1.328125 5.941406-13.964844 9.265625-22.691406 26.351562-22.691406 45.328125 0 10.929687 2.933594 21.085937 7.933594 29.496093-9.472657 9.097657-14.804688 21.042969-14.804688 33.691407 0 26.195312 22.871094 47.6875 51.679688 49.367187 12.390624 29.023438 33.492187 54.09375 60.359374 72.503906-19.414062 13.9375-36.226562 31.660157-49.015624 51.808594-15.222657 23.96875-24.855469 51.558594-27.863282 79.78125-.742187 6.96875 1.523438 13.964844 6.226563 19.191406 4.726562 5.257813 11.492187 8.273438 18.558593 8.273438h11.167969c4.140625 0 7.5-3.359375 7.5-7.5 0-4.144531-3.359375-7.5-7.5-7.5h-11.167969c-2.859374 0-5.492187-1.171875-7.40625-3.304688-1.886718-2.097656-2.761718-4.785156-2.464843-7.570312 2.804687-26.3125 11.421875-50.984375 25.609375-73.332031 12.632812-19.894531 29.519531-37.21875 49.0625-50.421875l5.5625 39.265625c1.203125 8.5 6.570312 15.742187 14.351562 19.371093 1.710938.796876 3.476563 1.390626 5.273438 1.789063l25.117187 45.992187c9.074219 16.613282 26.46875 26.933594 45.394531 26.933594 18.925782 0 36.320313-10.320312 45.394532-26.933594l25.121094-45.992187c1.796874-.398437 3.5625-.992187 5.269531-1.789063 7.785156-3.628906 13.148437-10.871093 14.355469-19.371093l5.5625-39.265625c19.539062 13.203125 36.429687 30.527344 49.058593 50.421875 14.191407 22.347656 22.808594 47.019531 25.613281 73.332031.296876 2.785156-.578124 5.472656-2.464843 7.570312-1.917969 2.132813-4.546875 3.304688-7.40625 3.304688h-274.675781c-4.144532 0-7.5 3.355469-7.5 7.5 0 4.140625 3.355468 7.5 7.5 7.5h274.671874c7.070313 0 13.832032-3.015625 18.5625-8.273438 4.699219-5.230468 6.96875-12.222656 6.226563-19.191406-3.007813-28.226562-12.644531-55.8125-27.867187-79.78125-12.789063-20.148437-29.601563-37.871094-49.015626-51.808594 26.871094-18.410156 47.972657-43.480468 60.359376-72.503906zm12.269531-62.355468c5.546875-1.910157 10.648437-5.007813 15.089843-9.027344 5.980469 6.152344 9.320313 13.910156 9.320313 22.015625 0 16.25-13.207031 29.902343-30.921875 33.53125 4.257812-14.050781 6.546875-28.839844 6.546875-44.109375-.003906-.800782-.023437-1.605469-.035156-2.410156zm-386.480469 12.988281c0-8.105469 3.339844-15.859375 9.320312-22.015625 4.441407 4.019531 9.542969 7.117187 15.09375 9.027344-.015624.800781-.035156 1.609374-.035156 2.410156 0 15.269531 2.285156 30.058594 6.542969 44.109375-17.710937-3.628907-30.921875-17.28125-30.921875-33.53125zm139.796875 177.304687c-.039063 0-.082031-.007812-.121094-.007812-1.242187-.085938-2.484375-.402344-3.675781-.957032-3.214844-1.5-5.34375-4.371093-5.839844-7.882812l-4.3125-30.445312c17.21875 7.734374 35.964844 13.042968 55.707032 15.429687l-35.765626 22.304687c-1.855468 1.15625-3.925781 1.675782-5.992187 1.558594zm65.648437-21.082031 31.394532 19.574219-22.832032 41.804687c-1.734374 3.179688-4.9375 5.078125-8.5625 5.078125s-6.828124-1.898437-8.5625-5.078125l-22.832031-41.804687zm32.230469 74.300781c-6.441406 11.796875-18.792969 19.125-32.230469 19.125s-25.789062-7.328125-32.230468-19.121094l-22.175782-40.609374c.914063-.429688 1.816407-.902344 2.6875-1.445313l7.578126-4.722656 22.414062 41.039062c4.410156 8.070313 12.53125 12.890625 21.726562 12.890625 9.199219 0 17.320313-4.816406 21.730469-12.890625l22.414063-41.039062 7.578125 4.722656c.871093.542969 1.773437 1.019531 2.6875 1.445313zm43.054688-62.066406c-.496094 3.511719-2.625 6.382812-5.839844 7.878906-1.1875.554688-2.421875.871094-3.660156.960938-.0625 0-.121094.007812-.183594.007812-2.050781.105469-4.101563-.410156-5.945313-1.5625l-35.765624-22.300781c19.742187-2.386719 38.488281-7.695313 55.707031-15.429687zm-75.285157-28.570312c-91.570312 0-166.066406-67.5-166.066406-150.464844 0-.089844.003906-.175782.003906-.261719 11.566407-.539063 22.339844-5.972656 30.511719-15.457031 6.527344-7.578125 10.816407-17.105469 12.445313-27.433594 8.738281 1.015625 17.609375.742188 26.46875-.820312 16.820312-2.964844 31.976562-10.234376 44.183594-21.132813 15.605468 8.96875 33.609374 13.679687 52.453124 13.679687 18.847657 0 36.855469-4.710937 52.457032-13.679687 12.207031 10.898437 27.363281 18.167969 44.183594 21.132813 8.859374 1.5625 17.726562 1.835937 26.46875.820312 1.628906 10.328125 5.917968 19.855469 12.445312 27.433594 8.171875 9.484375 18.945312 14.917968 30.511719 15.457031 0 .085937.003906.175781.003906.261719-.003906 82.964844-74.5 150.464844-166.070313 150.464844zm121.605469 39.632812h-15.84375c-7.640625 0-13.851562 6.214844-13.851562 13.855469v33.707031h-4.492188c-4.140625 0-7.5 3.355469-7.5 7.5s3.359375 7.5 7.5 7.5h55.464844c4.144531 0 7.5-3.355469 7.5-7.5s-3.355469-7.5-7.5-7.5h-7.425781v-33.707031c0-7.640625-6.210938-13.855469-13.851563-13.855469zm-1.148437 47.5625h-13.546875v-32.5625h13.546875zm-59.605469-218.226562c-7.460937-.855469-13.910156-2.941407-17.265625-5.585938-11.261719-8.898438-29.949219-12.394531-43.585938-4.476562-13.632812-7.917969-32.324218-4.421876-43.585937 4.472656-3.351563 2.648437-9.804687 4.734375-17.261719 5.589844-5.960937.679687-11.003906 4.601562-13.160156 10.234374-2.167969 5.667969-1.023438 11.992188 2.984375 16.511719 16.386719 18.457031 43.273437 31.8125 71.023437 16.175781 8.574219 4.832032 17.070313 6.894532 25.195313 6.894532 18.167969 0 34.507813-10.316406 45.828125-23.070313 4.007812-4.519531 5.152344-10.84375 2.984375-16.511719-2.152344-5.632812-7.195313-9.554687-13.15625-10.234374zm-1.046875 16.789062c-6.308594 7.109375-28.972656 28.929688-55.632812 11.09375-1.261719-.84375-2.71875-1.265625-4.171876-1.265625-1.453124 0-2.90625.421875-4.167968 1.265625-26.660156 17.835938-49.324219-3.980469-55.636719-11.09375-.300781-.339844-.367187-.742188-.195313-1.191406.238282-.625.6875-.675782.855469-.695313 6.03125-.6875 17.28125-2.738281 24.851563-8.71875 7.808594-6.160156 21.738281-8.273437 29.25-1.453125 2.859375 2.597656 7.226562 2.597656 10.085937 0 7.511719-6.820312 21.445313-4.707031 29.25 1.453125 7.570313 5.980469 18.820313 8.027344 24.855469 8.71875.167969.019531.613281.070313.851562.695313.171876.449218.105469.851562-.195312 1.191406zm19.074219-51.910156c-4.140625 0-7.5 3.355468-7.5 7.5v13.089844c0 4.144531 3.359375 7.5 7.5 7.5 4.144531 0 7.5-3.355469 7.5-7.5v-13.09375c0-4.140626-3.355469-7.496094-7.5-7.496094zm0 0"/></svg>